<svg width="18px" height="18px" viewBox="0 0 16 16" xmlns="http://www.w3.org/2000/svg">
  <path fill-rule="evenodd" clip-rule="evenodd" d="M8 .5a7.5 7.5 0 0 0-2.37 14.6c.37.07.51-.16.51-.36v-1.24c-2.09.46-2.53-1.01-2.53-1.01-.34-.87-.83-1.1-.83-1.1-.68-.46.05-.46.05-.46.75.05 1.14.77 1.14.77.66 1.14 1.74.81 2.16.62.07-.46.26-.8.47-.98-1.64-.18-3.37-.82-3.37-3.65 0-.81.28-1.47.77-1.99-.08-.18-.33-.94.07-1.96 0 0 .62-.2 2.03.76.6-.17 1.24-.25 1.88-.25s1.28.08 1.88.25c1.41-.96 2.03-.76 2.03-.76.4 1.02.15 1.78.07 1.96.49.52.77 1.18.77 1.99 0 2.83-1.73 3.47-3.38 3.65.26.23.5.68.5 1.38v2.05c0 .2.14.43.52.36A7.5 7.5 0 0 0 8 .5z"/>
</svg>
